<svg id="Layer_1" data-name="Layer 1"  viewBox="0 0 27.47 31.09">
  <polygon points="15.42 0 15.42 6.37 8.93 6.37 8.93 13.02 12.72 13.02 12.72 19.39 8.93 19.39 8.93 31.09 0 31.09 0 0 15.42 0" fill="#231f20"/>
  <path d="M26.83,25.32c0,1.94,.09,4.42,.41,5.78h-8.67c-.5-1.36-.63-3.61-.63-6.77v-.81c0-2.55-.6-3.98-4.03-4.14v-6.38h.37c3.02,0,4.11-1.26,4.11-3.34,0-1.88-.2-2.63-1.77-3.26V0h1.57c7.35,0,9.27,3.93,9.27,8.62,0,4.29-2.53,6.5-4.65,7.36,1.94,.68,4.02,2.75,4.02,8.03v1.31Z" fill="#11579b"/>
</svg>